<svg xmlns="http://www.w3.org/2000/svg" width="49.844" height="58.978" viewBox="0 0 49.844 58.978">
  <path id="Path_7655" data-name="Path 7655" d="M2707.352,55.33V47.285h-4.861V55.33a3.648,3.648,0,0,1-7.3,0V47.285h-2.609a3.924,3.924,0,0,1-3.933-3.933V19.771h32.536V43.352a3.924,3.924,0,0,1-3.933,3.933h-2.608V55.33a3.648,3.648,0,0,1-7.3,0Zm15.2-17.341v-15.2a3.648,3.648,0,0,1,7.3,0v15.2a3.648,3.648,0,0,1-7.3,0Zm-42.548,0v-15.2a3.648,3.648,0,0,1,7.3,0v15.2a3.648,3.648,0,0,1-7.3,0Zm41.188-19.5h-32.535a14.127,14.127,0,0,1,2.293-7.675,15.827,15.827,0,0,1,6-5.4L2694.374.771a.518.518,0,0,1-.052-.4.521.521,0,0,1,.253-.309.5.5,0,0,1,.245-.067h.005a.512.512,0,0,1,.454.268l2.6,4.693a17.534,17.534,0,0,1,14.079,0l2.6-4.693a.51.51,0,0,1,.453-.268h.005a.52.52,0,0,1,.247.067.5.5,0,0,1,.2.7l-2.57,4.642a15.818,15.818,0,0,1,6,5.4,14.132,14.132,0,0,1,2.294,7.674h0Zm-10.116-7.312a1.357,1.357,0,1,0,1.357-1.358A1.358,1.358,0,0,0,2711.073,11.174Zm-15.017,0a1.358,1.358,0,1,0,1.358-1.358A1.359,1.359,0,0,0,2696.055,11.174Z" transform="translate(-2680)" fill="#a4c639"/>
</svg>
