<svg xmlns="http://www.w3.org/2000/svg" width="58.749" height="52.27" viewBox="0 0 58.749 52.27">
  <path id="react" d="M48.3,16.942q-.914-.315-1.891-.6.16-.654.292-1.29C48.136,8.107,47.2,2.508,44,.665,40.939-1.1,35.926.741,30.864,5.146q-.73.635-1.463,1.342-.488-.466-.973-.9C23.123.879,17.805-1.106,14.612.742c-3.062,1.772-3.969,7.035-2.68,13.621q.187.954.434,1.946c-.753.214-1.479.441-2.174.684C3.972,19.161,0,22.56,0,26.085c0,3.641,4.264,7.293,10.743,9.507q.767.262,1.588.5-.266,1.071-.461,2.1c-1.229,6.471-.269,11.61,2.785,13.371,3.154,1.819,8.448-.051,13.6-4.556q.611-.534,1.226-1.13.8.767,1.588,1.449c4.993,4.3,9.924,6.031,12.975,4.265,3.151-1.824,4.175-7.344,2.846-14.06q-.152-.769-.352-1.57.558-.165,1.093-.341c6.735-2.231,11.117-5.839,11.117-9.528,0-3.538-4.1-6.959-10.445-9.144Zm-1.461,16.29q-.482.16-.987.309A58.867,58.867,0,0,0,42.881,26.1a58.854,58.854,0,0,0,2.859-7.334q.9.261,1.746.551c5.436,1.872,8.753,4.639,8.753,6.771,0,2.271-3.581,5.219-9.4,7.146Zm-2.413,4.781a21.252,21.252,0,0,1,.282,7.754c-.35,1.886-1.054,3.144-1.924,3.647-1.851,1.072-5.811-.321-10.081-4q-.734-.632-1.477-1.347a58.961,58.961,0,0,0,4.924-6.253,58.579,58.579,0,0,0,7.957-1.227q.18.725.318,1.421Zm-24.4,11.216c-1.809.639-3.25.657-4.12.155-1.853-1.069-2.623-5.195-1.573-10.729q.181-.951.429-1.95a59.022,59.022,0,0,0,7.917,1.146,61.1,61.1,0,0,0,5.043,6.231q-.562.543-1.119,1.031a21.256,21.256,0,0,1-6.577,4.117ZM11.554,33.217A21.256,21.256,0,0,1,4.7,29.577C3.245,28.329,2.51,27.091,2.51,26.085c0-2.139,3.189-4.868,8.509-6.722.645-.225,1.321-.437,2.022-.636a60.157,60.157,0,0,0,2.863,7.42A61.143,61.143,0,0,0,13,33.672q-.75-.216-1.45-.454ZM14.4,13.881c-1.1-5.642-.371-9.9,1.474-10.967,1.965-1.138,6.312.484,10.892,4.552q.439.39.882.814a60.122,60.122,0,0,0-5,6.193,61.338,61.338,0,0,0-7.84,1.218q-.229-.922-.4-1.81Zm25.341,6.257q-.872-1.506-1.787-2.938c1.874.237,3.67.552,5.357.936a53.607,53.607,0,0,1-1.88,5.059q-.8-1.518-1.69-3.057ZM29.4,10.073a53.648,53.648,0,0,1,3.457,4.174q-1.724-.081-3.485-.083-1.743,0-3.458.081c1.141-1.505,2.311-2.9,3.486-4.172ZM19,20.156q-.871,1.51-1.658,3.038c-.731-1.733-1.356-3.438-1.867-5.083,1.676-.375,3.464-.682,5.326-.914q-.925,1.444-1.8,2.96Zm1.855,15a53.419,53.419,0,0,1-5.414-.87c.519-1.675,1.158-3.416,1.9-5.187q.789,1.524,1.666,3.04h0q.893,1.542,1.845,3.017Zm8.615,7.121c-1.19-1.283-2.376-2.7-3.535-4.23q1.687.066,3.437.067,1.8,0,3.546-.079a53.384,53.384,0,0,1-3.449,4.242ZM41.451,29.006a53.243,53.243,0,0,1,1.973,5.168,53.321,53.321,0,0,1-5.48.934q.915-1.45,1.8-2.989.9-1.557,1.7-3.113Zm-3.878,1.859c-.918,1.592-1.861,3.112-2.818,4.547-1.743.125-3.544.189-5.38.189s-3.607-.057-5.319-.168c-1-1.454-1.959-2.978-2.872-4.554h0c-.91-1.572-1.748-3.157-2.507-4.733.759-1.58,1.594-3.167,2.5-4.736h0c.907-1.573,1.862-3.09,2.849-4.535,1.747-.132,3.539-.2,5.349-.2h0c1.819,0,3.613.069,5.359.2.971,1.434,1.92,2.946,2.831,4.52.921,1.591,1.767,3.168,2.533,4.714-.763,1.573-1.607,3.165-2.524,4.755ZM42.75,2.839c1.967,1.134,2.732,5.71,1.5,11.71q-.118.574-.264,1.168a60.119,60.119,0,0,0-7.855-1.241,58.955,58.955,0,0,0-4.966-6.2q.677-.651,1.351-1.239c4.337-3.775,8.391-5.265,10.238-4.2Zm-13.376,18a5.246,5.246,0,1,1-5.246,5.246,5.246,5.246,0,0,1,5.246-5.246Z" fill="#00d8ff"/>
</svg>
