<svg xmlns="http://www.w3.org/2000/svg" width="60.611" height="54.268" viewBox="0 0 60.611 54.268">
  <path id="ruby_rails" d="M2684.052,54.268c5.991-28.72,22.025-49.687,56.56-50.745V6.167c-21.32,5.815-31.716,20.791-28.015,48.1Zm30.306-2.819.706-4.757,4.756,2.291-.176,4.757ZM2680,39.644l2.291-6.343,5.99,1.939-2.291,6.167Zm35.239-3.524,1.409-4.4,4.229,2.82-.177,4.757Zm4.934-14.976,3-3.172,3.171,4.581-2.114,3.348Zm-29.954-2.114,4.406-4.757,5.462,3.523-4.406,5.286Zm39.821-5.815,3.876-1.939,1.234,2.82-2.82,2.642ZM2706.077,5.99l4.757-3.347,3.876,4.4-4.934,3.172ZM2724.049.881,2728.983,0l1.057,2.819-4.933,1.234Z" transform="translate(-2680)" fill="#c00"/>
</svg>
