<svg xmlns="http://www.w3.org/2000/svg" width="58.622" height="50.221" viewBox="0 0 58.622 50.221">
  <path id="swift" d="M38.474,4.008S51.49,11.449,54.9,23.269c3.069,10.677.611,15.773.611,15.773A18.664,18.664,0,0,1,59.155,44.9a10.1,10.1,0,0,1,.607,9.323s-.209-4.355-6.7-5.257c-5.948-.837-8.111,4.953-19.47,4.673A38.6,38.6,0,0,1,2,36.138c5.55,3.027,12.821,7.727,21.876,7.005s10.945-3.5,10.945-3.5A140.061,140.061,0,0,1,8.053,11.62c7.118,5.956,24.75,17.81,24.34,17.509A158.749,158.749,0,0,1,14.754,8.683S41.208,30.433,43.338,30.3c.875-1.8,5.4-11.134-4.865-26.289Z" transform="translate(-2 -4.006)" fill="#eb4548"/>
</svg>
