<svg xmlns="http://www.w3.org/2000/svg" width="58.977" height="58.978" viewBox="0 0 58.977 58.978">
  <path id="wordpress" d="M0,29.488A29.491,29.491,0,0,0,16.619,56.026L2.553,17.487A29.387,29.387,0,0,0,0,29.488M49.4,28a15.533,15.533,0,0,0-2.431-8.132c-1.495-2.431-2.9-4.488-2.9-6.917a5.106,5.106,0,0,1,4.952-5.234c.131,0,.254.017.382.024A29.483,29.483,0,0,0,4.85,13.29c.693.022,1.345.035,1.9.035,3.083,0,7.859-.374,7.859-.374a1.218,1.218,0,0,1,.188,2.429s-1.6.188-3.375.282L22.158,47.6l6.454-19.354L24.019,15.663c-1.589-.094-3.095-.282-3.095-.282a1.218,1.218,0,0,1,.188-2.429s4.869.374,7.767.374c3.083,0,7.859-.374,7.859-.374a1.218,1.218,0,0,1,.188,2.429s-1.6.188-3.375.282l10.657,31.7,2.943-9.827C48.424,33.452,49.4,30.523,49.4,28M30.006,32.067,21.157,57.776a29.5,29.5,0,0,0,18.123-.47,2.8,2.8,0,0,1-.21-.405ZM55.364,15.341a22.555,22.555,0,0,1,.2,3.032A27.843,27.843,0,0,1,53.32,28.935L44.313,54.976A29.491,29.491,0,0,0,55.364,15.341" fill="#21759b" fill-rule="evenodd"/>
</svg>
